{"title":"Cradle 2 The Grave (2003) 720p Blu-Ray x264(Dual-Audio)(English)","uid":13733110,"size":834596695,"categoryP":"video","categoryS":"hd___movies","magnet":"?xt=urn:btih:dd1110622605b40abef98c0b7ad36023639a6e7d&amp;dn=Cradle+2+The+Grave+%282003%29+720p+Blu-Ray+x264%28Dual-Audio%29%28English%29&amp;tr=udp%3A%2F%2Ftracker.leechers-paradise.org%3A6969&amp;tr=udp%3A%2F%2Fzer0day.ch%3A1337&amp;tr=udp%3A%2F%2Fopen.demonii.com%3A1337&amp;tr=udp%3A%2F%2Ftracker.coppersurfer.tk%3A6969&amp;tr=udp%3A%2F%2Fexodus.desync.com%3A6969","seeders":5,"leechers":4,"uploader":"Lion.King","files":3,"time":1457031043,"description":"[img]http://imgchicken.com/images/28209838058092017913.png[/img]\r\n\r\n[quote][color=#FF0000][size=5][b]Cradle 2 The Grave (2003) 720p Blu-Ray x264 (Dual-Audio) (English DD 5.1 + Hindi DD 2.1B) - SSEC[/b][/size][/color] [/quote]\r\n\r\n[IMG]http://imgchicken.com/images/00520822318018563733.jpg[/IMG]\r\n\r\n[color=#FF0000][b]5.8/10[/b][/color] \nhttp://www.imdb.com/title/tt0306685/\r\n\r\n[color=#FF0000][b]General[/b][/color]\r\nUnique ID                   : 254495670384754835341578414717289535891 (0xBF76154EA1FAEDD49DF18F5BBAFA9993)\r\nComplete name               : Cradle 2 The Grave (2003) 720p Blu-Ray x264 (Dual-Audio) (English DD 5.1 + Hindi DD 2.1B) - SSEC\r\nFormat                      : Matroska\r\nFormat version              : Version 4 / Version 2\r\nFile size                   : 796 MiB\r\nDuration                    : 1h 36mn\r\nOverall bit rate            : 1 149 Kbps\r\nMovie name                  : Cradle 2 The Grave (2003) 720p Blu-Ray x264 (Dual-Audio) (English DD 5.1 + Hindi DD 2.1B) - SSEC\r\nEncoded date                : UTC 2016-03-03 16:33:42\r\nWriting application         : mkvmerge v7.9.0 ('Birds') 64bit\r\nWriting library             : libebml v1.3.1 + libmatroska v1.4.2\r\nDURATION                    : 01:08:21.150000000\r\nNUMBER_OF_FRAMES            : 5\r\nNUMBER_OF_BYTES             : 209\r\n_STATISTICS_WRITING_APP     : mkvmerge v7.9.0 ('Birds') 64bit\r\n_STATISTICS_WRITING_DATE_UT : 2016-03-03 16:33:42\r\n_STATISTICS_TAGS            : BPS DURATION NUMBER_OF_FRAMES NUMBER_OF_BYTES\r\n\r\n[color=#FF0000][b]Video[/b][/color]\r\nID                          : 1\r\nFormat                      : AVC\r\nFormat/Info                 : Advanced Video Codec\r\nFormat profile              :   \r\nFormat settings, CABAC      : Yes\r\nFormat settings, ReFrames   : 5 frames\r\nCodec ID                    : V_MPEG4/ISO/AVC\r\nDuration                    : 1h 36mn\r\nBit rate                    : 899 Kbps\r\nWidth                       : 1 280 pixels\r\nHeight                      : 530 pixels\r\nDisplay aspect ratio        : 2.40:1\r\nFrame rate mode             : Constant\r\nFrame rate                  : 23.976 fps\r\nColor space                 : YUV\r\nChroma subsampling          : 4:2:0\r\nBit depth                   : 8 bits\r\nScan type                   : Progressive\r\nBits/(Pixel*Frame)          : 0.055\r\nStream size                 : 603 MiB (76%)\r\nTitle                       : Cradle 2 The Grave (2003) 720p Blu-Ray x264 (Dual-Audio) (English DD 5.1 + Hindi DD 2.1B) - SSEC\r\nWriting library             : x264 core 133 r2334 a3ac64b\r\nEncoding settings           : cabac=1 / ref=5 / deblock=1:0:0 / analyse=0x3:0x113 / me=umh / subme=8 / psy=1 / psy_rd=1.00:0.00 / mixed_ref=1 / me_range=16 / chroma_me=1 / trellis=1 / 8x8dct=1 / cqm=0 / deadzone=21,11 / fast_pskip=1 / chroma_qp_offset=-2 / threads=6 / lookahead_threads=1 / sliced_threads=0 / nr=0 / decimate=1 / interlaced=0 / bluray_compat=0 / constrained_intra=0 / bframes=3 / b_pyramid=2 / b_adapt=2 / b_bias=0 / direct=3 / weightb=1 / open_gop=0 / weightp=2 / keyint=240 / keyint_min=23 / scenecut=40 / intra_refresh=0 / rc_lookahead=50 / rc=2pass / mbtree=1 / bitrate=899 / ratetol=1.0 / qcomp=0.60 / qpmin=0 / qpmax=69 / qpstep=4 / cplxblur=20.0 / qblur=0.5 / ip_ratio=1.40 / aq=1:1.00\r\nLanguage                    : English\r\nDefault                     : Yes\r\nForced                      : No\r\nDURATION                    : 01:36:49.721000000\r\nNUMBER_OF_FRAMES            : 139294\r\nNUMBER_OF_BYTES             : 647167610\r\n_STATISTICS_WRITING_APP     : mkvmerge v7.9.0 ('Birds') 64bit\r\n_STATISTICS_WRITING_DATE_UT : 2016-03-03 16:33:42\r\n_STATISTICS_TAGS            : BPS DURATION NUMBER_OF_FRAMES NUMBER_OF_BYTES\r\n\r\n[color=#FF0000][b]Audio #1 #2[/b][/color]\r\nID                          : 2\r\nFormat                      : AC-3\r\nFormat/Info                 : Audio Coding 3\r\nMode extension              : CM (complete main)\r\nFormat settings, Endianness : Big\r\nCodec ID                    : A_AC3\r\nDuration                    : 1h 36mn\r\nBit rate mode               : Constant\r\nBit rate                    : 128 Kbps\r\nChannel(s)                  : 2 channels\r\nChannel positions           : Front: L R\r\nSampling rate               : 48.0 KHz\r\nCompression mode            : Lossy\r\nStream size                 : 88.6 MiB (11%)\r\nTitle                       : SSEC\r\nLanguage                    : Hindi\r\nDefault                     : Yes\r\nForced                      : No\r\n\r\n\r\n[IMG]http://imgchicken.com/images/12185228442199230985.png[/IMG]\r\n[IMG]http://imgchicken.com/images/75694945721571495630.png[/IMG]\r\n[URL=http://www.crystaltorrents.com][IMG]http://imgchicken.com/images/49075687297144075728.png[/IMG][/URL]\r\n[IMG]http://imgchicken.com/images/99731464123557004288.png[/IMG]\r\n[IMG]http://imgchicken.com/images/07585459089974632047.png[/IMG]","torrent":{"xt":"urn:btih:dd1110622605b40abef98c0b7ad36023639a6e7d","amp;dn":"Cradle+2+The+Grave+%282003%29+720p+Blu-Ray+x264%28Dual-Audio%29%28English%29","amp;tr":["udp%3A%2F%2Ftracker.leechers-paradise.org%3A6969","udp%3A%2F%2Fzer0day.ch%3A1337","udp%3A%2F%2Fopen.demonii.com%3A1337","udp%3A%2F%2Ftracker.coppersurfer.tk%3A6969","udp%3A%2F%2Fexodus.desync.com%3A6969"],"infoHash":"dd1110622605b40abef98c0b7ad36023639a6e7d","infoHashBuffer":{"type":"Buffer","data":[221,17,16,98,38,5,180,10,190,249,140,11,122,211,96,35,99,154,110,125]},"announce":[],"urlList":[]}}